<svg width="800" height="600" xmlns="http://www.w3.org/2000/svg" viewBox="0 0 800 600">
  <!-- Background elements -->
  <rect x="150" y="100" width="500" height="400" rx="20" fill="#f3f4f6" />
  <rect x="180" y="130" width="440" height="30" rx="5" fill="#e5e7eb" />
  
  <!-- Document content -->
  <rect x="180" y="180" width="320" height="15" rx="3" fill="#d1d5db" />
  <rect x="180" y="205" width="440" height="15" rx="3" fill="#d1d5db" />
  <rect x="180" y="230" width="380" height="15" rx="3" fill="#d1d5db" />
  <rect x="180" y="255" width="410" height="15" rx="3" fill="#d1d5db" />
  
  <rect x="180" y="290" width="290" height="15" rx="3" fill="#d1d5db" />
  <rect x="180" y="315" width="440" height="15" rx="3" fill="#d1d5db" />
  <rect x="180" y="340" width="350" height="15" rx="3" fill="#d1d5db" />
  <rect x="180" y="365" width="400" height="15" rx="3" fill="#d1d5db" />
  
  <!-- Pencil -->
  <g transform="rotate(-30, 550, 350)">
    <rect x="420" y="330" width="200" height="40" rx="3" fill="#f59e0b" />
    <polygon points="620,330 650,350 620,370" fill="#78350f" />
    <rect x="400" y="330" width="20" height="40" fill="#78350f" />
    <rect x="405" y="340" width="10" height="20" fill="#f3f4f6" />
  </g>
  
  <!-- Decorative elements -->
  <circle cx="600" cy="180" r="30" fill="#3b82f6" opacity="0.7" />
  <circle cx="200" cy="420" r="25" fill="#ec4899" opacity="0.7" />
  <circle cx="500" cy="450" r="20" fill="#8b5cf6" opacity="0.7" />
</svg>